<?xml version="1.0" encoding="utf-8"?>
<!-- Generator: Adobe Illustrator 27.3.1, SVG Export Plug-In . SVG Version: 6.00 Build 0)  -->
<svg version="1.1" id="Laag_1" xmlns="http://www.w3.org/2000/svg" xmlns:xlink="http://www.w3.org/1999/xlink" x="0px" y="0px"
	 viewBox="0 0 620 458.9" style="enable-background:new 0 0 620 458.9;" xml:space="preserve">
<style type="text/css">
	.st0{fill:#FFFFFF;}
	.st1{fill:#638C1C;}
</style>
<g>
	<path id="Witte_rand" class="st0" d="M619.6,166.9c-2.2-43-5.7-81.5-26.6-117c-17.7-30.2-46.1-48.2-78-49.5h-0.3
		c-46.7-1.7-94.5,3-140.8,7.5c-9.9,1-20.2,2-30.1,2.9C268.3,17.7,188,26.5,109.8,49.6C90,55.4,67.2,62.9,47.6,77.8
		c-15.8,11.9-27.1,29.6-34.7,54c-5.9,19-8.5,38.7-10.6,57.3c-4.8,40.9-2.1,82.4,8,122.3c3.9,15.3,10.4,30.4,19.7,46.1
		c1.3,2.2,2.7,4.4,4.1,6.5c12.4,19,28.9,35.1,48.3,46.9c16.7,10.2,35.9,17.7,58.7,22.8c17.7,4.1,37.4,6.7,63.7,8.6
		c77.5,5.6,140.9,10.3,199.3,14.8c8.1,0.6,16.5,1.3,25.2,1.6c16.2,0.6,33.2,0.3,49.9-3.3c28.4-6.1,54.1-20.9,73.7-42.4
		c18-19.5,31.6-44.7,39.5-72.8C595.1,332.3,623.6,244.3,619.6,166.9z M576,335.3c-13.8,49.7-48,92.3-100.3,103.4
		c-23,4.9-46.8,3.1-70.2,1.3c-66.5-5-133-10-199.4-14.8c-20.9-1.5-41.5-3.8-61.1-8.2c-38.2-8.7-72.4-25.9-96.5-62.4
		c-1.3-1.9-2.5-3.9-3.7-5.9C37,335.5,30.7,321.9,27,307.1c-9.6-37.9-12.2-77.3-7.6-116.1c3.9-33.5,9.9-77.9,38.6-99.5
		C74.5,78.9,94.6,72,114.6,66.1c74.9-22.1,153.2-31,230.8-38.1c55.3-5.1,113.1-12.5,168.7-10.4c27.9,1.1,50.3,17.5,64.1,41.1
		c19.6,33.4,22.3,71.6,24.3,109.2C606.5,244.9,576,335.3,576,335.3z"/>
	<path id="Donkergroen" class="st1" d="M145,416.9c19.6,4.5,40.3,6.7,61.1,8.2c66.4,4.8,132.9,9.7,199.4,14.8
		c23.4,1.8,47.2,3.6,70.2-1.3c52.3-11.1,86.5-53.7,100.3-103.4c0,0,30.5-90.4,26.5-167.4c-2-37.6-4.7-75.9-24.3-109.2
		c-13.8-23.5-36.2-40-64.1-41.1c-55.6-2.1-113.4,5.3-168.7,10.4c-77.6,7.1-155.8,16-230.8,38.1c-20,5.9-40.1,12.8-56.7,25.4
		c-28.7,21.7-34.7,66.1-38.6,99.5c-4.5,38.8-1.9,78.2,7.6,116.1c3.7,14.8,10,28.4,17.8,41.5c1.2,2,2.4,4,3.7,5.9
		C72.6,391,106.8,408.2,145,416.9z"/>
	<g id="EXIT_TOYS">
		<g id="TOYS">
			<path class="st0" d="M398.1,320.8c0,8.2,2,14.3,6,18.5c4,4.2,11.3,6.7,22,7.7l8.6,0.7c1.8,0.2,3.2,1.7,3.2,3.5v0.1
				c0,1.8-1.4,3.4-3.2,3.5c-8.4,0.8-16.9,0.6-25.2-0.7c-0.8-0.1-1.5-0.3-2.3-0.4c-1-0.3-1.9-0.5-2.9-0.6c-1.9-0.4-3.8,0.8-4.2,2.7
				c0,0.1,0,0.1,0,0.2l-2.4,14.6c-0.3,1.9,0.9,3.7,2.8,4.1c9.3,1.8,18.8,2.7,28.3,2.6c4.7,0,8.5-0.1,11.4-0.3
				c7.4-0.6,15.2-2.5,20.3-8.4c4.9-5.6,5.9-13.6,5.9-20.8c0-7.7-2.2-13.7-6.6-18.1c-4.4-4.3-12.3-7.1-23.8-8.2l-6.2-0.6
				c-1.8-0.2-3.2-1.7-3.2-3.5c0-3.4,3.7-3.7,6.3-3.8c4.2-0.2,8.5-0.1,12.7,0.2c2.8,0.2,5.6,0.5,8.3,0.9c0.9,0.2,1.8,0.2,2.6,0.1
				c1.4-0.3,2.5-1.5,2.7-2.9l2.2-14.2c0.3-1.9-1-3.6-2.8-4c-9.3-1.8-18.7-2.6-28.2-2.5c-11.7,0-19.9,2.1-24.8,6.3
				C400.5,302,398.1,309.7,398.1,320.8z"/>
			<path class="st0" d="M163,297v11.7c0.3,2.6,2.5,4.7,5.1,4.7h9.1c2.9,0,5.2,2.3,5.2,5.2v0v53.7c0,2.8,2.3,5.2,5.2,5.2c0,0,0,0,0,0
				h17.2c2.8,0,5.2-2.3,5.2-5.2v-53.7c0-2.8,2.3-5.2,5.2-5.2h9.1c2.7,0,4.9-2,5.1-4.7V297c0-3.1-2.1-5.6-5.1-5.6h-56.2
				C165.1,291.3,163,293.7,163,297z"/>
			<path class="st0" d="M305.8,301.8c-5.6-6.9-15.7-10.4-30.3-10.5c-14.6-0.1-24.8,3.3-30.4,10.1c-5.7,6.8-8.5,17.8-8.6,32.8
				c-0.2,6.3,0.4,12.6,1.7,18.8c1,4.8,3.1,9.4,6,13.3c3,3.9,7.2,6.9,11.9,8.4c5.1,1.8,11.4,2.7,18.9,2.7c7.5,0.1,13.9-0.8,19-2.5
				c4.7-1.5,8.9-4.3,12-8.2c3-3.9,5.1-8.4,6.2-13.2c1.3-6.2,2-12.5,1.9-18.8C314.1,319.7,311.3,308.7,305.8,301.8z M287.6,346.5
				c0,5.8-4.7,10.6-10.5,10.6c0,0,0,0,0,0h-3.8c-5.8,0-10.6-4.7-10.6-10.6v-24.2c0-5.8,4.7-10.6,10.6-10.6h3.8
				c5.8,0,10.6,4.7,10.6,10.6L287.6,346.5z"/>
			<path class="st0" d="M382.7,291.4h-12.8c-3.6,0-6.7,2.4-7.6,5.9l-5.9,23c-0.1,0.4-0.6,0.7-1,0.6c-0.3-0.1-0.5-0.3-0.6-0.6
				l-5.8-23c-0.9-3.5-4-5.9-7.6-5.9h-12.8c-4.3,0-7.8,3.5-7.8,7.8c0,1,0.2,2,0.6,2.9l20,50.5c0.4,0.9,0.5,1.9,0.5,2.9v14.1
				c0,4.3,3.5,7.8,7.8,7.8l0,0h11.8c4.3,0,7.8-3.5,7.8-7.8v-14.1c0-1,0.2-2,0.5-2.9l20-50.5c1.6-4-0.4-8.6-4.4-10.2
				C384.7,291.5,383.7,291.4,382.7,291.4z"/>
		</g>
		<g id="EXIT">
			<path class="st0" d="M399.4,126.7l-36.4-0.1c-4.5,0-8.1,3.6-8.1,8.1l0,0l-0.1,136.5c0,4.5,3.6,8.1,8.1,8.1h36.3
				c4.5,0,8.1-3.6,8.1-8.1c0-0.1,0-0.1,0-0.2l0.3-136.5C407.4,130.2,403.8,126.7,399.4,126.7z"/>
			<path class="st0" d="M527.7,126.9l-99.6-0.1c-5.4,0-9.1,4.2-9.1,10v20.8c0.4,4.7,4.3,8.3,9.1,8.3h16.2c5.1,0,9.2,4.1,9.1,9.2
				c0,0,0,0,0,0l-0.1,95.3c0,5.1,4.1,9.2,9.1,9.2h0H493c5.1,0,9.2-4.1,9.2-9.1l0.1-95.3c0-5.1,4.1-9.2,9.2-9.1h16.2
				c4.7,0,8.7-3.6,9.1-8.3v-20.8C536.8,131.4,533.1,126.9,527.7,126.9z"/>
			<path class="st0" d="M343,133.6c1.1-2.6-0.1-5.7-2.7-6.8c-0.6-0.3-1.3-0.4-2-0.4l-38.2,0c-4.1,0-7.8,2.6-9.2,6.5L279.1,166
				c-0.2,0.7-0.9,1.1-1.6,1.1h-0.2c-0.6,0-1.2-0.4-1.5-0.9l-16.1-34c-1.7-3.6-5.4-5.9-9.4-5.9l-48.9,0l0,0l-94.6-0.1
				c-7.9,0-14.3,6.4-14.3,14.2c0,0,0,0,0,0l-0.1,125.2c0,7.3,5.9,13.3,13.2,13.3h0l89.2,0.1v0.1h22.6v-0.1h29.4c3.8,0,7.4-2.2,9-5.7
				l17.5-37.3c0.4-0.8,1.4-1.1,2.2-0.7c0.4,0.2,0.7,0.5,0.8,0.9l13,36.1c1.5,4.1,5.3,6.8,9.7,6.8h39c3,0,5.5-2.4,5.5-5.5
				c0-0.7-0.1-1.4-0.4-2l-27.1-68.2c-0.8-2.1-0.8-4.5,0.1-6.5L343,133.6z M201.5,126.3l0.1,0.3h-0.1V126.3z M235.9,202.7
				L235.9,202.7l-0.1,0.2l-0.1,0.3l-0.2,0.4l-0.2,0.5l-0.2,0.6l-0.3,0.6l-0.3,0.7l-0.4,0.8l-0.4,0.9l-0.4,0.9
				c-0.1,0.3-0.3,0.7-0.5,1l-0.5,1.1l-0.5,1.1l-0.5,1.2l-0.6,1.2l-0.6,1.3c-0.2,0.4-0.4,0.9-0.6,1.3l-0.6,1.4
				c-0.2,0.5-0.4,0.9-0.6,1.4l-0.7,1.4l-0.7,1.5l-0.7,1.5l-0.7,1.5l-0.7,1.5l-0.7,1.5l-0.7,1.5l-0.7,1.5c-0.2,0.5-0.5,1-0.7,1.6
				l-0.7,1.5l-0.7,1.5c-0.2,0.5-0.5,1-0.7,1.5l-0.7,1.5c-0.2,0.5-0.4,1-0.7,1.5s-0.4,1-0.7,1.5l-0.6,1.4c-0.2,0.5-0.4,0.9-0.6,1.4
				l-0.6,1.4l-0.6,1.3l-0.6,1.3c-0.2,0.4-0.4,0.8-0.6,1.2l-0.5,1.2l-0.5,1.2c-0.2,0.3-0.3,0.7-0.5,1.1c-0.2,0.3-0.3,0.7-0.5,1
				l-0.4,0.9l-0.4,0.9l-0.4,0.8l-0.3,0.7c-0.1,0.2-0.2,0.4-0.3,0.6l-0.2,0.5l-0.2,0.4l-0.1,0.3c-0.1,0.2-0.2,0.4-0.3,0.6
				c-0.1,0.2-0.2,0.3-0.4,0.5c-0.3,0.3-0.6,0.5-0.9,0.7c-2.1,1.2-4.7,0.5-6-1.5c-0.4-0.7-0.6-1.4-0.6-2.2v-18.3l-53.9-0.1
				c-3.4,0-6.2-2.8-6.2-6.2c0,0,0,0,0,0v-18h24v-28h-24v-16.3c0-3.4,2.8-6.2,6.2-6.2h0h53.9v-18c0-2.4,1.9-4.3,4.3-4.4
				c1.1,0,2.1,0.4,2.9,1.1c0.5,0.5,0.9,1.1,1.2,1.7l0.7,1.4l1,2l1.2,2.6l1.5,3.1c0.5,1.1,1.1,2.3,1.6,3.4s1.2,2.5,1.8,3.7l1.9,4
				c0.6,1.4,1.3,2.7,1.9,4.1c0.6,1.4,1.3,2.8,2,4.1l1.9,4.1c0.6,1.3,1.3,2.7,1.9,4l1.8,3.8l1.7,3.5c0.5,1,1,2.1,1.5,3.1
				c0.4,0.9,0.8,1.8,1.3,2.7l1,2.1l0.7,1.5c0.1,0.3,0.3,0.6,0.4,0.8l0.1,0.1C236.3,200.9,236.3,201.9,235.9,202.7z"/>
		</g>
	</g>
</g>
</svg>
